<?xml version="1.0" encoding="utf-8"?>
<!-- Generator: Adobe Illustrator 24.0.1, SVG Export Plug-In . SVG Version: 6.00 Build 0)  -->
<svg version="1.1" id="Calque_1" xmlns="http://www.w3.org/2000/svg" xmlns:xlink="http://www.w3.org/1999/xlink" x="0px" y="0px"
	 viewBox="0 0 1024 1024" style="enable-background:new 0 0 1024 1024;" xml:space="preserve">
<style type="text/css">
	.st0{fill:#359BFF;}
	.st1{fill:#FFB61B;}
	.st2{fill:#0A2030;}
	.st3{fill:#262829;}
</style>
<g>
	<path class="st0" d="M380.68,367.3c-7.23,0.98-13.82,3.21-19.1,6.66c-5.27,3.42-9.29,8-11.96,13.16c-0.67,1.29-1.22,2.63-1.75,3.95
		c-0.21,0.69-0.47,1.35-0.66,2.04c-0.17,0.69-0.4,1.36-0.53,2.06c-0.62,2.75-0.9,5.53-0.8,8.22c0.31,5.52,1.77,9.73,5.04,15.25
		c0.83,1.35,1.7,2.8,2.67,4.26l2.8,4.37c1.8,2.77,3.75,5.32,6.02,7.69c2.28,2.37,5.07,4.53,8.08,6.98c2.99,2.42,5.88,5.11,8.49,7.89
		l1.92,2.11l1.85,2.07c1.23,1.39,2.47,2.81,3.68,4.26c0.61,0.72,1.2,1.46,1.77,2.22c0.6,0.73,1.16,1.51,1.73,2.26
		c1.12,1.54,2.2,3.12,3.25,4.74c4.11,6.49,7.41,13.84,8.93,21.87c0.77,4,1.12,8.15,0.92,12.29c-0.16,4.15-0.79,8.31-1.94,12.32
		c-0.56,2.01-1.23,4-2.03,5.93c-0.39,0.97-0.81,1.92-1.24,2.86c-0.41,0.88-0.92,1.83-1.41,2.77c-1.98,3.73-4.39,7.27-7.12,10.54
		c-2.73,3.27-5.78,6.27-9.06,8.96c-3.28,2.65-6.83,5.04-10.31,6.99c-0.81,0.47-1.75,0.97-2.69,1.46c-0.94,0.48-1.85,1.01-2.83,1.41
		l-2.9,1.28l-2.97,1.11c-3.99,1.4-8.1,2.43-12.25,3.07c-4.15,0.64-8.33,0.88-12.45,0.79c-4.1-0.08-8.24-0.54-11.95-1.15
		c-7.26-1.13-15.31-2.61-23.05-6.05c-3.87-1.71-7.65-3.96-10.99-6.86c-3.32-2.9-6.17-6.45-8.03-10.36
		c-1.89-3.88-2.94-8.03-3.15-12.07c-0.24-4.04,0.29-7.96,1.37-11.62l2,0.11c0.69,3.59,1.68,6.99,3.08,10.03
		c1.39,3.05,3.18,5.71,5.29,7.89c4.21,4.39,9.56,6.65,15.56,7.92c6.04,1.27,12.56,1.44,19.73,1.64c3.51,0.1,6.64,0.07,9.8-0.15
		c3.14-0.22,6.21-0.62,9.22-1.2c3.01-0.59,5.95-1.36,8.84-2.3l2.15-0.74l2.12-0.84c0.72-0.26,1.4-0.61,2.1-0.9
		c0.7-0.3,1.39-0.6,2.18-0.99c2.94-1.44,5.6-2.85,8.15-4.53c2.53-1.68,4.9-3.55,7.07-5.65c2.17-2.09,4.11-4.42,5.86-6.91
		c1.8-2.58,3.42-5.25,4.81-8.03c2.79-5.57,4.78-11.68,5.19-18.17c0.15-3.23,0.03-6.55-0.63-9.83c-0.64-3.28-1.74-6.51-3.25-9.58
		c-3.01-6.14-7.6-11.65-12.82-16.35c-2.59-2.3-5.43-4.11-8.52-5.68c-3.06-1.55-6.59-2.99-10.15-4.95c-3.55-1.98-6.91-4.44-9.97-7.06
		c-0.75-0.65-1.52-1.34-2.23-2l-2.04-1.91c-1.34-1.34-2.76-2.71-4.08-4.28c-2.71-3.06-5.3-6.9-7.03-11.3
		c-1.76-4.41-2.45-9.15-2.43-13.71c0.15-9.15,3.23-17.9,8.5-24.91c2.61-3.52,5.79-6.58,9.32-9.07c0.86-0.65,1.82-1.17,2.73-1.73
		c0.91-0.57,1.87-1.05,2.84-1.51c0.49-0.22,0.96-0.47,1.45-0.67l1.49-0.57c0.5-0.18,0.98-0.38,1.48-0.55
		c0.5-0.16,1.01-0.3,1.52-0.44c4.04-1.12,8.16-1.59,12.16-1.36c3.99,0.25,7.88,1.01,11.44,2.58L380.68,367.3z"/>
</g>
<g>
	<path class="st1" d="M432.99,376.26c4.23,1.83,8.22,4.53,11.55,8.15c1.68,1.79,3.16,3.83,4.43,6.04c1.25,2.15,2.29,4.75,2.89,7.39
		c1.11,5.25,1.13,10.06,1.06,14.75c-0.02,2.36-0.16,4.66-0.3,6.97c-0.15,2.3-0.29,4.59-0.53,6.87c-0.44,4.56-0.95,9.11-1.63,13.64
		c-0.35,2.27-0.69,4.53-1.11,6.81l-1.22,6.7c-1.61,8.79-3.4,17.54-5.35,26.25c-0.98,4.35-2,8.7-3.05,13.04l-1.62,6.5l-0.84,3.24
		c-0.29,1.17-0.6,2.32-0.91,3.44c-2.5,8.87-5.29,17.34-8.25,25.83c-0.71,2.12-1.49,4.23-2.24,6.34c-0.77,2.12-1.47,4.18-2.31,6.38
		c-0.84,2.2-1.73,4.51-2.87,6.78c-1.14,2.27-2.48,4.52-4.07,6.59c-3.19,4.14-7.25,7.42-11.67,9.56c-4.4,2.18-9.12,3.28-13.73,3.42
		c4.01-2.29,7.6-4.9,10.49-7.96c2.89-3.04,5.08-6.46,6.45-10.04c1.43-3.57,2.06-7.39,2.66-11.65c0.27-2.14,0.63-4.43,0.97-6.66
		c0.35-2.24,0.68-4.47,1.08-6.69c1.48-8.88,3.31-17.73,5.01-26.29l1.22-6.43l1.32-6.62c0.91-4.41,1.86-8.81,2.84-13.2
		c1.98-8.78,4.12-17.53,6.43-26.22c0.57-2.16,1.17-4.4,1.76-6.41l1.75-6.32c1.15-4.24,2.33-8.49,3.45-12.76l1.68-6.39l1.6-6.34
		c0.53-2.1,0.97-4.19,1.38-6.22c0.41-2.03,0.71-4.01,0.83-5.84c0.14-1.82-0.01-3.58-0.42-5.59c-0.38-1.96-1.02-3.9-1.8-5.84
		C438.32,383.59,435.88,379.86,432.99,376.26z"/>
</g>
<g>
	<path class="st1" d="M544.67,415.96c-3.52,2.14-6.54,4.72-8.51,7.64c-0.97,1.46-1.68,2.98-2.09,4.51c-0.18,0.74-0.26,1.38-0.3,2.13
		c-0.04,0.74-0.02,1.54,0.03,2.38c0.19,3.35,0.88,7.16,1.62,10.74c0.41,1.8,0.83,3.56,1.33,5.32c0.49,1.76,1.08,3.5,1.64,5.3
		c0.58,1.79,1.21,3.62,1.85,5.5c0.65,1.88,1.26,3.83,1.8,5.76c1.09,3.87,2.16,7.75,3.16,11.65c1.01,3.9,1.99,7.8,2.88,11.72
		c0.87,3.93,1.68,7.87,2.47,11.81c0.78,3.95,1.52,7.9,2.22,11.86c0.33,1.98,0.7,3.96,1,5.95l0.81,5.91l2.97,23.33
		c0.29,1.92,0.49,3.87,0.76,5.8l0.81,5.78c0.26,1.93,0.59,3.83,0.87,5.75c0.31,1.88,0.63,3.9,0.96,5.53
		c0.66,3.35,1.93,6.54,4.03,9.5c2.09,2.94,5.04,5.53,8.57,7.68c-4.13,0-8.43-1.15-12.28-3.52c-1.94-1.16-3.7-2.66-5.31-4.34
		c-1.59-1.69-2.95-3.62-4.12-5.62c-1.16-2.06-1.97-3.86-2.91-5.76c-0.88-1.88-1.69-3.8-2.48-5.71c-0.8-1.91-1.52-3.84-2.22-5.77
		c-0.71-1.93-1.39-3.86-2.01-5.81c-2.55-7.77-4.58-15.65-6.33-23.5c-0.45-1.96-0.85-3.93-1.26-5.85l-1.29-5.77
		c-0.84-3.85-1.64-7.7-2.41-11.56c-0.75-3.86-1.48-7.73-2.16-11.6c-0.7-3.87-1.42-7.74-2.06-11.63c-0.66-3.88-1.25-7.79-1.81-11.7
		c-0.15-0.98-0.26-1.96-0.42-2.93l-0.48-2.93c-0.31-1.98-0.63-4.02-0.91-6.11c-0.3-2.09-0.48-4.25-0.62-6.42
		c-0.13-2.17-0.19-4.36-0.1-6.53c0.17-4.34,0.56-8.53,1.73-13.09c0.31-1.13,0.69-2.29,1.19-3.47c0.5-1.17,1.14-2.39,1.9-3.41
		c1.48-1.98,3.23-3.65,5.18-4.89C536.24,417.05,540.54,415.98,544.67,415.96z"/>
</g>
<g>
	<path class="st1" d="M426.24,453.86c3.33,0.92,6.54,2.04,9.72,3.24c3.19,1.19,6.31,2.49,9.42,3.83c1.54,0.68,3.11,1.36,4.6,2.11
		c1.51,0.73,2.98,1.52,4.47,2.28c1.5,0.75,2.96,1.56,4.42,2.36c1.46,0.8,2.94,1.58,4.38,2.42c5.83,3.29,11.39,6.66,16.91,10.22
		c5.51,3.53,10.9,7.34,16.19,10.87c10.94,7.35,21.48,15.36,31.5,24.04c5.01,4.35,9.9,8.86,14.63,13.62
		c2.35,2.39,4.68,4.82,6.94,7.35c2.26,2.52,4.48,5.1,6.56,7.89c-3.35-0.94-6.56-2.09-9.72-3.3c-3.17-1.2-6.27-2.5-9.35-3.84
		c-6.14-2.69-12.09-5.66-17.95-8.74c-5.86-3.08-11.58-6.38-17.2-9.8c-5.63-3.43-11.13-6.95-16.61-10.65
		c-5.66-3.79-10.83-7.86-16.01-12.02c-5.15-4.16-10.26-8.51-15.09-12.95c-1.23-1.09-2.41-2.25-3.62-3.37
		c-1.2-1.13-2.41-2.26-3.58-3.44c-2.38-2.31-4.68-4.73-7.06-7.02c-2.34-2.36-4.67-4.75-6.93-7.25
		C430.6,459.2,428.36,456.64,426.24,453.86z"/>
</g>
<g>
	<path class="st0" d="M581.2,431.91c4.34-2.02,8.85-3.69,13.43-5.22c2.3-0.74,4.62-1.41,6.96-2.03c2.33-0.62,4.65-1.18,7.03-1.71
		c4.74-1.07,9.63-1.81,14.56-2.2c2.47-0.2,4.95-0.28,7.44-0.27c2.43,0,4.87,0.04,7.38,0.16c5,0.27,10.08,1.01,15.06,2.24
		c4.95,1.18,9.97,3.07,14.55,5.32c4.63,2.24,9.03,4.91,13.2,7.93c2.09,1.51,4.12,3.11,6.08,4.79l1.41,1.21l1.38,1.21
		c0.92,0.83,1.85,1.68,2.79,2.57c3.74,3.54,7.43,7.69,10.4,12.42c2.99,4.72,5.19,9.88,6.71,15.29c1.46,5.41,2.17,11.03,2.12,16.42
		c0,2.7-0.14,5.34-0.35,7.88c-0.22,2.57-0.45,4.88-0.73,7.39c-0.55,5.03-1.5,10.37-3.1,15.59c-1.56,5.23-3.81,10.36-6.6,15.16
		c-2.84,4.78-6.28,9.19-10.16,13.13c-3.88,3.94-8.27,7.4-12.8,10.29c-0.56,0.36-1.12,0.71-1.67,1.04c-0.52,0.32-1.1,0.65-1.7,1
		c-1.17,0.69-2.37,1.33-3.57,1.96c-2.42,1.23-4.9,2.36-7.43,3.35c-5.05,1.97-10.33,3.42-15.49,4.35c-1.29,0.23-2.55,0.43-3.76,0.62
		l-3.66,0.54c-2.52,0.35-5.15,0.65-7.85,0.81c-5.39,0.34-11.05,0.09-16.54-0.98c-2.74-0.55-5.45-1.26-8.09-2.13
		c-2.42-0.8-5.08-1.8-7.6-2.98c-5.08-2.32-9.87-5.48-14.07-9.28c-4.15-3.83-7.85-8.26-10.58-13.16c-1.4-2.43-2.54-4.96-3.56-7.5
		c-0.96-2.55-1.83-5.12-2.46-7.68c-1.36-5.11-2.03-10.2-2.61-14.95c-0.64-5.12-0.88-10.28-0.61-15.41
		c0.26-5.12,0.93-10.21,2.08-15.18c0.32-1.24,0.59-2.48,0.96-3.7l0.52-1.83l0.53-1.72c0.72-2.3,1.45-4.66,2.33-7.03
		c1.74-4.72,4.07-9.62,7.47-13.74c3.38-4.13,7.55-7.38,12.05-9.77c2.27-1.16,4.59-2.17,6.98-2.92c2.39-0.74,4.81-1.3,7.25-1.66
		c4.87-0.71,9.86-0.6,14.51,0.55c-2.39,0.01-4.76,0.21-7.07,0.58c-2.29,0.4-4.55,1.03-6.72,1.81c-4.37,1.51-8.43,3.68-11.97,6.36
		c-3.49,2.73-6.53,5.95-8.64,9.59c-2.15,3.63-3.49,7.65-4.44,12.02c-0.48,2.18-0.92,4.44-1.33,6.75l-0.31,1.75l-0.26,1.65
		c-0.19,1.09-0.29,2.2-0.43,3.29c-0.21,2.2-0.39,4.4-0.45,6.6c-0.05,2.2-0.02,4.4,0.1,6.59c0.27,4.38,0.84,8.73,1.77,12.98
		c0.99,4.62,2.02,8.91,3.38,12.91c0.66,2.02,1.48,3.9,2.33,5.74c0.9,1.81,1.85,3.56,2.96,5.17c2.12,3.29,4.79,6.08,7.75,8.53
		c3.01,2.4,6.37,4.34,9.99,5.83c1.83,0.76,3.65,1.36,5.77,1.97c1.9,0.53,3.82,0.95,5.76,1.26c3.88,0.53,7.79,0.7,11.88,0.32
		c2.04-0.18,4.13-0.46,6.31-0.82l3.38-0.59c1.14-0.2,2.22-0.4,3.27-0.62c4.18-0.83,8.1-1.93,11.89-3.45
		c1.89-0.76,3.74-1.62,5.54-2.56c0.9-0.48,1.79-0.96,2.66-1.49c0.43-0.25,0.88-0.51,1.37-0.82l1.35-0.84
		c3.5-2.2,6.63-4.64,9.45-7.45c2.82-2.79,5.26-5.94,7.35-9.29c2.06-3.37,3.77-6.95,5.02-10.8c1.29-3.84,2.12-7.88,2.81-12.27
		c0.34-2.2,0.68-4.61,0.95-6.77c0.27-2.19,0.47-4.29,0.56-6.34c0.18-4.11-0.06-8.03-0.86-11.85c-0.82-3.81-2.19-7.55-4.05-11.02
		c-1.84-3.48-4.25-6.71-7.18-9.94c-0.73-0.81-1.5-1.62-2.29-2.44l-1.2-1.25l-1.19-1.22c-1.51-1.55-3.09-3.05-4.74-4.49
		c-3.29-2.87-6.84-5.46-10.54-7.81c-1.85-1.16-3.76-2.23-5.67-3.19c-1.88-0.92-3.96-1.81-5.99-2.58c-4.11-1.57-8.38-2.72-12.82-3.56
		c-2.21-0.42-4.51-0.78-6.82-1.09c-2.26-0.32-4.53-0.54-6.81-0.72c-4.57-0.35-9.18-0.32-13.86-0.1
		C599.95,428.94,590.59,429.95,581.2,431.91z"/>
</g>
<g>
	<path class="st1" d="M741.5,424.09c7-1.39,14.05-2.42,21.13-3.25c7.08-0.85,14.19-1.43,21.32-1.83
		c14.26-0.79,28.58-0.74,42.89,0.07c3.57,0.21,7.16,0.46,10.83,0.81c3.66,0.36,7.36,0.88,11.08,1.54c3.72,0.67,7.46,1.48,11.15,2.57
		c3.69,1.08,7.34,2.37,10.92,3.85l2.67,1.14l2.63,1.24c0.88,0.4,1.72,0.88,2.58,1.32c0.86,0.45,1.73,0.9,2.5,1.33
		c3.17,1.74,6.51,3.64,9.8,5.83c6.54,4.4,13,10.16,17.74,17.53c4.68,7.37,7.45,15.98,8.02,24.48c0.29,4.25,0.08,8.47-0.49,12.54
		c-0.28,2.03-0.66,4.04-1.06,5.88c-0.24,1.01-0.45,2.02-0.72,3.01c-0.3,0.99-0.56,1.99-0.89,2.97c-1.28,3.93-2.94,7.72-4.89,11.3
		c-1.95,3.58-4.27,6.92-6.71,9.96c-0.61,0.76-1.22,1.5-1.83,2.22c-0.61,0.72-1.18,1.39-1.86,2.14l-1.97,2.19l-2.07,2.09
		c-2.83,2.72-5.82,5.24-8.96,7.54c-3.13,2.3-6.45,4.3-9.83,6.1c-3.38,1.79-6.83,3.38-10.32,4.7c-1.73,0.66-3.47,1.29-5.16,1.88
		c-1.76,0.58-3.54,1.19-5.33,1.71c-3.6,0.99-7.2,1.9-10.85,2.51c-3.64,0.66-7.31,1.05-10.96,1.33c-3.67,0.19-7.31,0.29-10.95,0.11
		c-7.26-0.32-14.42-1.37-21.3-3.27c14.24-0.6,28.01-2.95,40.7-7.67c3.18-1.13,6.27-2.46,9.3-3.87l4.49-2.23
		c1.55-0.8,3.04-1.6,4.5-2.42c2.91-1.65,5.71-3.35,8.36-5.21c2.65-1.86,5.15-3.86,7.53-5.96c2.36-2.12,4.55-4.39,6.58-6.78l1.51-1.8
		l1.43-1.86c0.46-0.59,0.98-1.3,1.46-1.97c0.48-0.67,0.94-1.32,1.38-1.98c1.77-2.61,3.25-5.23,4.56-7.91
		c1.27-2.69,2.28-5.45,3.03-8.28c3.12-11.84,2.42-23.66-3.52-32.66c-2.85-4.58-7.04-8.51-12.08-12.07c-2.52-1.8-5.26-3.5-8.21-5.25
		c-0.76-0.46-1.44-0.84-2.13-1.23c-0.7-0.38-1.37-0.81-2.09-1.16l-2.11-1.11l-2.14-1.06c-5.73-2.77-11.78-4.86-18.12-6.53
		c-6.34-1.63-12.99-2.83-19.9-3.95c-13.72-2.29-27.55-4.18-41.48-5.88c-6.97-0.87-13.96-1.63-20.98-2.4
		C755.64,425.63,748.59,424.93,741.5,424.09z"/>
</g>
<g>
	<path class="st2" d="M757.82,426.89c-0.52,2.42-0.56,4.87,0.07,7.07c0.62,2.21,1.86,4.06,3.49,5.68c1.64,1.65,3.65,3.01,5.83,4.74
		c2.2,1.76,4.29,3.96,5.9,6.37c3.25,4.85,5.2,9.84,7.27,14.62l0.76,1.81l0.77,1.99c0.27,0.66,0.48,1.34,0.69,2.02
		c0.21,0.68,0.45,1.36,0.62,2.05c0.77,2.76,1.28,5.57,1.64,8.4c0.34,2.83,0.43,5.66,0.43,8.46c-0.04,2.79-0.21,5.56-0.46,8.28
		c-0.27,2.71-0.62,5.39-1,8.02l-0.59,3.92c-0.2,1.29-0.4,2.58-0.66,3.93l-0.73,4c-0.26,1.33-0.58,2.64-0.87,3.97
		c-0.56,2.66-1.3,5.26-1.98,7.89c-1.48,5.22-3.21,10.38-5.2,15.44c-1.99,5.06-4.23,10.03-6.75,14.88
		c-2.52,4.85-5.24,9.61-8.35,14.22c-5.99,8.88-12.96,17.73-21.11,25.28c-8.09,7.63-17.18,14.21-27.02,19.45
		c-9.84,5.25-20.46,9-31.06,11.44c-2.65,0.65-5.29,1.17-7.92,1.67l-3.92,0.71c-1.29,0.23-2.58,0.46-3.93,0.66
		c-2.68,0.41-5.35,0.83-8.05,1.1c-1.35,0.14-2.68,0.33-4.03,0.43l-4.04,0.3c-5.39,0.33-10.78,0.49-16.15,0.35
		c-5.37-0.1-10.72-0.44-16.02-0.99c-5.31-0.54-10.57-1.29-15.78-2.14c-5.21-0.87-10.36-1.86-15.45-2.81l-15.31-2.75
		c-5.11-0.86-10.22-1.77-15.34-2.58c-20.47-3.33-41.01-6.21-61.56-8.81c-5.14-0.67-10.28-1.25-15.42-1.88l-15.43-1.72l-7.72-0.86
		c-2.56-0.33-5.19-0.38-7.79-0.56c-5.22-0.29-10.42-0.67-15.62-1.04c-10.4-0.74-20.78-1.56-31.13-2.44l-30.94-2.53
		c-20.56-1.54-41-2.91-61.29-2.71c-1.28,0.01-2.74,0.02-4.19-0.01c-1.46-0.04-2.93-0.1-4.4-0.22c-2.95-0.23-5.9-0.63-8.84-1.2
		c-5.87-1.16-11.69-3.07-17.17-5.79c-5.46-2.75-10.61-6.21-15.1-10.3c-2.27-2.02-4.36-4.21-6.34-6.48
		c-1.95-2.28-3.76-4.67-5.44-7.12c-1.67-2.45-3.2-4.99-4.58-7.52l-1-1.86l-0.96-1.97l-1.88-4c-0.56-1.35-1.07-2.71-1.6-4.07
		l-0.79-2.04c-0.24-0.68-0.44-1.37-0.67-2.06l-1.3-4.13l-1.06-4.16c-1.36-5.56-2.26-11.17-2.78-16.76
		c-0.53-5.59-0.81-11.18-0.66-16.76c0.08-2.79,0.2-5.58,0.43-8.38c0.11-1.4,0.25-2.81,0.4-4.23c0.16-1.4,0.39-3.03,0.61-4.35
		c0.88-5.49,2.15-10.66,2.19-13.79c0.05-1.61-0.13-2.58-0.52-3.66c-0.19-0.54-0.5-1.13-0.81-1.65c-0.32-0.5-0.68-0.94-1.1-1.4
		c-0.89-0.89-2.24-1.9-4.11-2.95c-1.85-1.05-4.05-2.12-6.34-3.22c-2.32-1.11-4.64-2.19-7.18-3.45c-2.47-1.23-4.87-2.53-7.22-3.84
		c-4.68-2.62-9.17-5.31-13.58-7.85c-2.21-1.27-4.38-2.52-6.56-3.7c-1.09-0.6-2.17-1.16-3.26-1.73l-3.36-1.69l-7.05-3.53l-6.98-3.65
		c-9.29-4.89-18.4-10.09-27.42-15.41c-4.51-2.66-8.99-5.36-13.43-8.11c-4.43-2.78-8.83-5.59-13.21-8.45
		c-8.78-5.66-17.37-11.61-25.88-17.61c-8.46-6.08-16.79-12.42-25.05-18.74l1.11-1.66c36.5,19.91,73.12,39.29,110.77,55.77l7.06,3.06
		l7.08,2.99l3.7,1.57c1.25,0.56,2.51,1.11,3.73,1.69c2.46,1.15,4.88,2.32,7.24,3.52c4.73,2.39,9.29,4.79,13.79,7
		c2.25,1.1,4.48,2.14,6.7,3.14c2.16,0.96,4.59,1.96,6.99,2.98c2.43,1.04,4.96,2.11,7.7,3.5c2.71,1.38,5.77,3.19,8.66,5.87
		c1.43,1.36,2.78,2.89,3.92,4.53c1.13,1.64,2.09,3.33,2.88,5.18l0.58,1.41c0.17,0.48,0.32,0.97,0.48,1.45
		c0.33,0.97,0.53,1.96,0.75,2.95c0.37,1.96,0.55,3.92,0.56,5.71c0.03,3.63-0.4,6.72-0.81,9.45c-0.41,2.75-0.87,5.2-1.2,7.57
		c-0.19,1.23-0.29,2.19-0.41,3.36c-0.1,1.16-0.2,2.33-0.27,3.52c-0.15,2.37-0.21,4.77-0.23,7.17c-0.03,9.59,0.82,19.2,2.98,28.25
		l0.82,3.39l1,3.3c0.17,0.55,0.32,1.11,0.5,1.65l0.6,1.6c0.41,1.06,0.78,2.14,1.2,3.19l1.4,3.06l0.69,1.55l0.8,1.59
		c1.06,2.06,2.16,3.99,3.37,5.86c4.81,7.48,11.07,13.63,18.57,17.67c3.75,2.02,7.82,3.56,12.1,4.57c2.14,0.5,4.32,0.88,6.54,1.14
		c1.11,0.13,2.23,0.22,3.36,0.29c1.15,0.07,2.27,0.1,3.59,0.14c21.23,0.58,42.23,2.61,62.92,5.66l15.48,2.34l15.4,2.56
		c10.25,1.71,20.46,3.51,30.68,5.14c10.22,1.68,20.43,2.88,30.7,4.9l15.38,2.76c5.13,0.86,10.25,1.78,15.39,2.6
		c20.52,3.37,41.07,6.46,61.68,9.11c5.15,0.68,10.31,1.26,15.47,1.9l15.5,1.73c10.36,1.16,20.49,2.08,30.62,2.03
		c5.06,0.02,10.1-0.18,15.1-0.59c5.01-0.37,9.98-1.02,14.9-1.82c2.46-0.43,4.91-0.84,7.35-1.37c2.44-0.46,4.86-1.07,7.27-1.65
		c1.19-0.27,2.44-0.59,3.69-0.91l3.69-0.96c2.43-0.66,4.84-1.32,7.2-2.03c4.73-1.42,9.34-3.02,13.82-4.85
		c4.46-1.86,8.82-3.9,13.02-6.23c8.39-4.66,16.3-10.27,23.44-16.74c7.16-6.5,13.4-13.82,19.27-21.96
		c5.69-7.81,10.53-16.51,14.71-25.45c2.08-4.49,3.87-9.11,5.58-13.76c0.78-2.35,1.64-4.68,2.31-7.07c0.35-1.19,0.73-2.37,1.05-3.57
		l0.95-3.6c0.33-1.18,0.63-2.43,0.93-3.69l0.88-3.73c0.58-2.47,1.08-4.91,1.56-7.34c0.46-2.42,0.83-4.82,1.1-7.21
		c0.24-2.38,0.36-4.75,0.35-7.1c-0.05-2.34-0.21-4.68-0.59-6.99c-0.08-0.58-0.22-1.15-0.32-1.73c-0.11-0.58-0.22-1.15-0.38-1.72
		l-0.43-1.72l-0.53-1.86c-0.72-2.48-1.43-4.95-2.2-7.32c-0.77-2.36-1.57-4.65-2.61-6.7c-1.04-2.06-2.28-3.92-3.89-5.67
		c-1.64-1.78-3.71-3.67-5.42-6.01c-1.75-2.3-2.99-5.22-3.26-8.13c-0.3-2.93,0.31-5.79,1.4-8.28L757.82,426.89z"/>
</g>
<g>
	<path class="st3" d="M611.69,634.24c-5.35,1.63-9.78,5.65-12.12,10.47c-2.4,4.82-2.68,10.38-1.22,14.73l0.61,1.66
		c0.23,0.66,0.46,1.23,0.7,1.78c0.47,1.09,1.02,2.03,1.57,2.78c0.54,0.75,1.15,1.26,1.65,1.54c0.52,0.28,0.92,0.31,1.28,0.28
		c0.39-0.07,0.62-0.12,0.99-0.21c0.38-0.11,0.84-0.18,1.45-0.32c1.24-0.31,2.93-0.82,4.72-1.57c0.43-0.18,0.94-0.38,1.41-0.62
		c0.35-0.2,0.74-0.34,1.1-0.52c0.34-0.22,0.72-0.39,1.08-0.58c0.34-0.24,0.71-0.43,1.07-0.66c1.43-0.93,2.88-2.11,4.33-3.57
		c0.73-0.73,1.45-1.53,2.15-2.4c0.71-0.87,1.42-1.79,2.09-2.8c0.64-0.95,1.41-2.26,2.09-3.39c0.69-1.14,1.33-2.22,1.9-3.31
		c1.12-2.15,1.99-4.31,2-6.39c0.05-2.06-1.01-4.21-3.07-5.68c-2.07-1.44-4.84-2.1-7.57-2.24
		C617.16,633.13,614.36,633.47,611.69,634.24z M611.69,634.24c2.67-0.78,5.39-1.34,8.19-1.7c2.8-0.29,5.71-0.41,8.73,0.44
		c0.73,0.27,1.52,0.48,2.23,0.9c0.36,0.2,0.74,0.38,1.1,0.6l1.02,0.77c1.35,1.06,2.53,2.49,3.34,4.12c0.83,1.62,1.35,3.36,1.64,5.07
		c0.31,1.71,0.43,3.4,0.46,5.05c0.03,1.64-0.03,3.25-0.13,4.77l-0.16,2.22c-0.05,0.73-0.13,1.53-0.26,2.34
		c-0.47,3.25-1.34,6.61-2.87,9.84c-1.51,3.23-3.66,6.38-6.46,9.05c-0.69,0.68-1.46,1.29-2.21,1.91c-0.77,0.6-1.59,1.15-2.41,1.69
		c-0.84,0.51-1.7,0.99-2.57,1.44c-0.77,0.39-1.54,0.74-2.39,1.1c-3.34,1.37-7.09,2.33-11.4,2.36c-2.17-0.01-4.5-0.32-6.82-1.06
		c-2.35-0.73-4.63-2.03-6.56-3.63c-1.92-1.62-3.45-3.66-4.45-5.71c-1.02-2.05-1.53-4.11-1.82-6.01c-0.27-1.91-0.25-3.71-0.15-5.37
		c0.06-0.83,0.16-1.64,0.26-2.36c0.11-0.76,0.24-1.69,0.38-2.51c0.67-3.36,1.88-6.47,3.46-9.2c1.57-2.74,3.45-5.12,5.52-7.24
		C601.52,638.95,606.38,635.88,611.69,634.24z"/>
</g>
<g>
	<path class="st3" d="M366.36,605.28c-3.59-2.13-7.9-2.8-11.96-2.26c-2.04,0.25-4.02,0.8-5.93,1.51c-1.92,0.72-3.76,1.6-5.42,2.68
		c-3.35,2.18-6.02,5.1-8.11,8.41c-0.54,0.81-1.02,1.68-1.51,2.56l-0.73,1.35c-0.24,0.45-0.43,0.88-0.64,1.31
		c-0.86,1.71-1.52,3.51-2.11,5.28c-1.12,3.59-1.73,7.24-1.86,10.86c-0.11,1.8-0.05,3.6,0.04,5.35c0.08,1.79,0.36,3.32,0.59,5.43
		c0.46,3.83,1.12,7.03,2.14,9.31c0.51,1.14,1.06,2.04,1.67,2.78c0.13,0.21,0.31,0.36,0.47,0.54l0.24,0.26
		c0.09,0.08,0.19,0.15,0.27,0.23c0.32,0.34,0.7,0.64,1.17,0.96c0.9,0.64,1.88,1.15,2.76,1.48c0.89,0.32,1.71,0.53,2.54,0.56
		c0.83,0.02,1.72,0,2.8-0.31c1.08-0.33,2.32-0.87,3.63-1.62c1.3-0.81,2.71-1.75,4.09-2.88c1.37-1.16,2.82-2.38,4.23-3.75
		c2.83-2.7,5.9-5.78,8.66-8.65c2.76-2.92,5.34-5.94,7.51-9.25c2.16-3.31,3.76-6.96,4.47-10.88c0.71-3.9,0.32-8.07-1.24-11.88
		C372.62,610.86,369.94,607.42,366.36,605.28z M366.36,605.28c3.58,2.13,6.41,5.38,8.39,9.09c2.01,3.7,3.17,7.95,3.34,12.33
		c0.2,4.38-0.47,8.85-1.68,13.12c-1.18,4.29-2.82,8.46-4.67,12.44c-0.92,1.99-1.89,3.93-2.83,5.83c-0.94,1.88-1.9,3.85-3.01,5.78
		c-2.2,3.89-4.82,7.86-8.6,11.57c-1.94,1.83-4.2,3.57-6.88,5c-2.7,1.42-5.89,2.41-9.2,2.75c-0.83,0.06-1.66,0.11-2.49,0.14
		c-0.82-0.03-1.66-0.04-2.47-0.14c-1.65-0.15-3.24-0.49-4.78-0.95c-3.09-0.91-5.84-2.33-8.33-4.07c-1.23-0.88-2.47-1.89-3.59-3.04
		c-0.58-0.55-1.12-1.14-1.62-1.77c-0.51-0.62-1.02-1.23-1.46-1.9c-1.83-2.62-3.12-5.49-3.92-8.29c-1.61-5.62-1.48-10.84-1.08-15.28
		c0.19-2.04,0.51-4.67,1-7.01c0.47-2.38,1.19-4.69,1.99-6.94c0.81-2.25,1.82-4.42,2.94-6.5c1.1-2.09,2.39-4.07,3.74-5.96
		c1.4-1.86,2.86-3.66,4.48-5.27c0.4-0.4,0.8-0.83,1.19-1.2l1.18-1.11c0.81-0.74,1.63-1.49,2.48-2.22c3.39-2.92,7.26-5.36,11.36-6.87
		c2.05-0.77,4.14-1.3,6.21-1.73c2.09-0.41,4.19-0.68,6.3-0.72C358.56,602.25,362.78,603.15,366.36,605.28z"/>
</g>
</svg>
